<svg width="40" height="40" viewBox="0 0 40 40" fill="none" xmlns="http://www.w3.org/2000/svg">
<mask id="mask0" mask-type="alpha" maskUnits="userSpaceOnUse" x="8" y="4" width="17" height="32">
<path d="M12.7274 4.6123L24.0474 35.7143H16.4464L8.06641 12.6863L12.7274 4.6123Z" fill="white"/>
</mask>
<g mask="url(#mask0)">
<path d="M12.7274 4.6123L24.0474 35.7143H16.4464L8.06641 12.6863L12.7274 4.6123Z" fill="black"/>
</g>
<path d="M3.57143 35.7141C5.54387 35.7141 7.14286 34.1152 7.14286 32.1427C7.14286 30.1703 5.54387 28.5713 3.57143 28.5713C1.59898 28.5713 0 30.1703 0 32.1427C0 34.1152 1.59898 35.7141 3.57143 35.7141Z" fill="#5B20E0"/>
<mask id="mask1" mask-type="alpha" maskUnits="userSpaceOnUse" x="22" y="5" width="17" height="31">
<path d="M27.5175 5.71509L38.5185 35.9401H30.9175L22.8555 13.7891L27.5175 5.71509Z" fill="white"/>
</mask>
<g mask="url(#mask1)">
<path d="M27.5175 5.71509L38.5185 35.9401H30.9175L22.8555 13.7891L27.5175 5.71509Z" fill="black"/>
</g>
</svg>
